<svg width="87" height="32" viewBox="0 0 87 32" fill="none" xmlns="http://www.w3.org/2000/svg">
<path opacity="0.6" d="M11.1844 0.864594L21.7921 16L11.1844 31.1354L0.57666 16L11.1844 0.864594Z" fill="#718096"/>
<path opacity="0.6" d="M18.7393 0.864578L29.347 16L18.7393 31.1354L8.13159 16L18.7393 0.864578Z" fill="#A0AEC0"/>
<path opacity="0.6" d="M26.294 0.864578L36.9017 16L26.294 31.1354L15.6863 16L26.294 0.864578Z" fill="#718096"/>
<path d="M45.7215 10.9058V8.82998H56.6281V10.9058H52.4029V22.5H49.9466V10.9058H45.7215ZM58.7307 8.82998H61.761L65.8193 18.7354H65.9795L70.0378 8.82998H73.0682V22.5H70.6919V13.1085H70.5651L66.7872 22.46H65.0117L61.2337 13.0885H61.1069V22.5H58.7307V8.82998ZM83.1939 12.5879C83.1316 12.005 82.869 11.5511 82.4062 11.2262C81.9479 10.9014 81.3516 10.739 80.6174 10.739C80.1012 10.739 79.6584 10.8169 79.2891 10.9726C78.9198 11.1283 78.6372 11.3397 78.4414 11.6067C78.2456 11.8737 78.1455 12.1785 78.141 12.5212C78.141 12.8059 78.2055 13.0529 78.3346 13.2621C78.4681 13.4712 78.6483 13.6492 78.8753 13.796C79.1022 13.9384 79.3536 14.0586 79.6295 14.1565C79.9054 14.2544 80.1835 14.3367 80.4639 14.4035L81.7454 14.7238C82.2616 14.844 82.7578 15.0064 83.2339 15.2111C83.7145 15.4158 84.1439 15.6739 84.5221 15.9854C84.9048 16.2969 85.2074 16.6729 85.4299 17.1134C85.6524 17.554 85.7637 18.0701 85.7637 18.662C85.7637 19.463 85.559 20.1683 85.1496 20.7779C84.7402 21.3831 84.1484 21.857 83.3741 22.1996C82.6043 22.5378 81.672 22.7069 80.5773 22.7069C79.5138 22.7069 78.5905 22.5423 77.8073 22.213C77.0286 21.8837 76.4189 21.4031 75.9784 20.7712C75.5423 20.1393 75.3065 19.3695 75.2709 18.4617H77.7072C77.7428 18.9379 77.8896 19.3339 78.1477 19.6499C78.4058 19.9658 78.7418 20.2016 79.1556 20.3574C79.5739 20.5131 80.0411 20.591 80.5573 20.591C81.0957 20.591 81.5674 20.5109 81.9724 20.3507C82.3818 20.1861 82.7021 19.9591 82.9335 19.6699C83.1649 19.3762 83.2829 19.0335 83.2873 18.642C83.2829 18.286 83.1783 17.9923 82.9736 17.7609C82.7689 17.525 82.4819 17.3292 82.1125 17.1735C81.7476 17.0133 81.3205 16.8709 80.831 16.7463L79.2757 16.3458C78.1499 16.0566 77.2599 15.6183 76.6058 15.0309C75.9561 14.4391 75.6313 13.6536 75.6313 12.6747C75.6313 11.8692 75.8493 11.1639 76.2854 10.5588C76.726 9.95358 77.3245 9.48411 78.081 9.15037C78.8374 8.81218 79.694 8.64309 80.6508 8.64309C81.6208 8.64309 82.4708 8.81218 83.2005 9.15037C83.9348 9.48411 84.511 9.94913 84.9293 10.5454C85.3476 11.1372 85.5634 11.8181 85.5768 12.5879H83.1939Z" fill="#1A202C"/>
</svg>
