<svg width="19" height="18" viewBox="0 0 19 18" fill="none" xmlns="http://www.w3.org/2000/svg">
<path d="M15.3965 10.5C16.2249 10.5 16.8965 9.82843 16.8965 9C16.8965 8.17157 16.2249 7.5 15.3965 7.5C14.5681 7.5 13.8965 8.17157 13.8965 9C13.8965 9.82843 14.5681 10.5 15.3965 10.5Z" stroke="#3A3A3A" stroke-width="1.5" stroke-linecap="round" stroke-linejoin="round"/>
<path d="M15.3965 4.5C16.2249 4.5 16.8965 3.82843 16.8965 3C16.8965 2.17157 16.2249 1.5 15.3965 1.5C14.5681 1.5 13.8965 2.17157 13.8965 3C13.8965 3.82843 14.5681 4.5 15.3965 4.5Z" stroke="#3A3A3A" stroke-width="1.5" stroke-linecap="round" stroke-linejoin="round"/>
<path d="M15.3965 16.5C16.2249 16.5 16.8965 15.8284 16.8965 15C16.8965 14.1716 16.2249 13.5 15.3965 13.5C14.5681 13.5 13.8965 14.1716 13.8965 15C13.8965 15.8284 14.5681 16.5 15.3965 16.5Z" stroke="#3A3A3A" stroke-width="1.5" stroke-linecap="round" stroke-linejoin="round"/>
<path d="M3.39648 10.5C4.22491 10.5 4.89648 9.82843 4.89648 9C4.89648 8.17157 4.22491 7.5 3.39648 7.5C2.56806 7.5 1.89648 8.17157 1.89648 9C1.89648 9.82843 2.56806 10.5 3.39648 10.5Z" stroke="#3A3A3A" stroke-width="1.5" stroke-linecap="round" stroke-linejoin="round"/>
<path d="M4.89648 9H13.8965" stroke="#3A3A3A" stroke-width="1.5" stroke-linecap="round" stroke-linejoin="round"/>
<path d="M13.8965 3H10.8965C9.39648 3 8.64648 3.75 8.64648 5.25V12.75C8.64648 14.25 9.39648 15 10.8965 15H13.8965" stroke="#3A3A3A" stroke-width="1.5" stroke-linecap="round" stroke-linejoin="round"/>
</svg>
