<svg width="19" height="18" viewBox="0 0 19 18" fill="none" xmlns="http://www.w3.org/2000/svg">
<path d="M6.07227 1.5V3.75" stroke="#3A3A3A" stroke-width="1.5" stroke-miterlimit="10" stroke-linecap="round" stroke-linejoin="round"/>
<path d="M12.0723 1.5V3.75" stroke="#3A3A3A" stroke-width="1.5" stroke-miterlimit="10" stroke-linecap="round" stroke-linejoin="round"/>
<path d="M15.8223 6.375V10.2225C15.1548 9.69 14.3073 9.375 13.3848 9.375C12.4623 9.375 11.5998 9.69748 10.9248 10.245C10.0173 10.9575 9.44727 12.075 9.44727 13.3125C9.44727 14.0475 9.65727 14.7525 10.0173 15.3375C10.2948 15.795 10.6548 16.1925 11.0823 16.5H6.07227C3.44727 16.5 2.32227 15 2.32227 12.75V6.375C2.32227 4.125 3.44727 2.625 6.07227 2.625H12.0723C14.6973 2.625 15.8223 4.125 15.8223 6.375Z" stroke="#3A3A3A" stroke-width="1.5" stroke-miterlimit="10" stroke-linecap="round" stroke-linejoin="round"/>
<path d="M5.32227 8.25H9.82227" stroke="#3A3A3A" stroke-width="1.5" stroke-miterlimit="10" stroke-linecap="round" stroke-linejoin="round"/>
<path d="M5.32227 12H7.28726" stroke="#3A3A3A" stroke-width="1.5" stroke-miterlimit="10" stroke-linecap="round" stroke-linejoin="round"/>
<path d="M17.3223 13.3125C17.3223 14.0475 17.1123 14.7525 16.7523 15.3375C16.5423 15.6975 16.2798 16.0125 15.9723 16.2675C15.2823 16.8825 14.3823 17.25 13.3848 17.25C12.5223 17.25 11.7273 16.9725 11.0823 16.5C10.6548 16.1925 10.2948 15.795 10.0173 15.3375C9.65727 14.7525 9.44727 14.0475 9.44727 13.3125C9.44727 12.075 10.0173 10.9575 10.9248 10.245C11.5998 9.69748 12.4623 9.375 13.3848 9.375C14.3073 9.375 15.1548 9.69 15.8223 10.2225C16.7373 10.9425 17.3223 12.06 17.3223 13.3125Z" stroke="#3A3A3A" stroke-width="1.5" stroke-miterlimit="10" stroke-linecap="round" stroke-linejoin="round"/>
<path d="M13.3848 15.1875C13.3848 14.1525 14.2248 13.3125 15.2598 13.3125C14.2248 13.3125 13.3848 12.4725 13.3848 11.4375C13.3848 12.4725 12.5448 13.3125 11.5098 13.3125C12.5448 13.3125 13.3848 14.1525 13.3848 15.1875Z" stroke="#3A3A3A" stroke-width="1.5" stroke-linecap="round" stroke-linejoin="round"/>
</svg>
