<svg width="20" height="20" viewBox="0 0 25 25" fill="none" xmlns="http://www.w3.org/2000/svg">
<path d="M21.3703 9.22564L14.8635 13.8733C14.6658 14.0145 14.567 14.0851 14.4611 14.1064C14.3678 14.1252 14.2711 14.1172 14.1821 14.0833C14.0812 14.0449 13.9953 13.959 13.8235 13.7873L10.7545 10.7182C10.5827 10.5464 10.4968 10.4605 10.3959 10.4221C10.3069 10.3883 10.2102 10.3802 10.1169 10.399C10.011 10.4203 9.9122 10.4909 9.71451 10.6321L3.20776 15.2798M8.0511 21.334H16.5269C18.2223 21.334 19.0699 21.334 19.7174 21.004C20.287 20.7138 20.7501 20.2507 21.0403 19.6812C21.3703 19.0336 21.3703 18.186 21.3703 16.4906V8.01481C21.3703 6.31949 21.3703 5.47182 21.0403 4.82429C20.7501 4.25471 20.287 3.79163 19.7174 3.50141C19.0699 3.17148 18.2223 3.17148 16.5269 3.17148H8.0511C6.35577 3.17148 5.50811 3.17148 4.86058 3.50141C4.291 3.79163 3.82791 4.25471 3.5377 4.82429C3.20776 5.47182 3.20776 6.31949 3.20776 8.01481V16.4906C3.20776 18.186 3.20776 19.0336 3.5377 19.6812C3.82791 20.2507 4.291 20.7138 4.86058 21.004C5.50811 21.334 6.35577 21.334 8.0511 21.334Z" stroke="#2D3748" stroke-width="1.51354" stroke-linecap="round" stroke-linejoin="round"/>
</svg>
