<svg width="19" height="18" viewBox="0 0 19 18" fill="none" xmlns="http://www.w3.org/2000/svg">
<path d="M16.5196 5.07001L13.9921 15.2175C13.8121 15.975 13.1371 16.5 12.3571 16.5H2.50212C1.36962 16.5 0.559631 15.39 0.897131 14.3025L4.05462 4.16254C4.27212 3.45754 4.92464 2.96997 5.65964 2.96997H14.8846C15.5971 2.96997 16.1896 3.40497 16.4371 4.00497C16.5796 4.32747 16.6096 4.69501 16.5196 5.07001Z" stroke="#3A3A3A" stroke-width="1.5" stroke-miterlimit="10"/>
<path d="M12.0723 16.5H15.6573C16.6248 16.5 17.3823 15.6825 17.3148 14.715L16.5723 4.5" stroke="#3A3A3A" stroke-width="1.5" stroke-miterlimit="10" stroke-linecap="round" stroke-linejoin="round"/>
<path d="M7.33203 4.78488L8.11204 1.54492" stroke="#3A3A3A" stroke-width="1.5" stroke-miterlimit="10" stroke-linecap="round" stroke-linejoin="round"/>
<path d="M12.3572 4.79233L13.0622 1.53735" stroke="#3A3A3A" stroke-width="1.5" stroke-miterlimit="10" stroke-linecap="round" stroke-linejoin="round"/>
<path d="M5.84717 9H11.8472" stroke="#3A3A3A" stroke-width="1.5" stroke-miterlimit="10" stroke-linecap="round" stroke-linejoin="round"/>
<path d="M5.09717 12H11.0972" stroke="#3A3A3A" stroke-width="1.5" stroke-miterlimit="10" stroke-linecap="round" stroke-linejoin="round"/>
</svg>
