<svg width="16" height="16" viewBox="0 0 16 16" fill="none" xmlns="http://www.w3.org/2000/svg">
<path d="M10.101 8.1625C11.8718 8.1625 13.3073 6.72702 13.3073 4.95625C13.3073 3.18549 11.8718 1.75 10.101 1.75C8.33027 1.75 6.89478 3.18549 6.89478 4.95625C6.89478 6.72702 8.33027 8.1625 10.101 8.1625Z" stroke="#3A3A3A" stroke-width="1.5" stroke-miterlimit="10"/>
<path d="M4.33124 12.6502C5.39439 12.6502 6.25625 11.7883 6.25625 10.7252C6.25625 9.66202 5.39439 8.80017 4.33124 8.80017C3.26809 8.80017 2.40625 9.66202 2.40625 10.7252C2.40625 11.7883 3.26809 12.6502 4.33124 12.6502Z" stroke="#3A3A3A" stroke-width="1.5" stroke-miterlimit="10"/>
<path d="M10.7445 14.25C11.6282 14.25 12.3445 13.5336 12.3445 12.65C12.3445 11.7663 11.6282 11.05 10.7445 11.05C9.86087 11.05 9.14453 11.7663 9.14453 12.65C9.14453 13.5336 9.86087 14.25 10.7445 14.25Z" stroke="#3A3A3A" stroke-width="1.5" stroke-miterlimit="10"/>
</svg>
