<svg width="16" height="16" viewBox="0 0 16 16" fill="none" xmlns="http://www.w3.org/2000/svg">
<path d="M11.6067 4.975C11.5692 4.96875 11.5255 4.96875 11.488 4.975C10.6255 4.94375 9.93799 4.2375 9.93799 3.3625C9.93799 2.46875 10.6567 1.75 11.5505 1.75C12.4442 1.75 13.163 2.475 13.163 3.3625C13.1567 4.2375 12.4692 4.94375 11.6067 4.975Z" stroke="#3A3A3A" stroke-width="1.5" stroke-linecap="round" stroke-linejoin="round"/>
<path d="M10.9631 9.5251C11.8193 9.66885 12.7631 9.51885 13.4256 9.0751C14.3068 8.4876 14.3068 7.5251 13.4256 6.9376C12.7568 6.49385 11.8006 6.34385 10.9443 6.49385" stroke="#3A3A3A" stroke-width="1.5" stroke-linecap="round" stroke-linejoin="round"/>
<path d="M4.08823 4.975C4.12573 4.96875 4.16948 4.96875 4.20698 4.975C5.06948 4.94375 5.75698 4.2375 5.75698 3.3625C5.75698 2.46875 5.03823 1.75 4.14448 1.75C3.25073 1.75 2.53198 2.475 2.53198 3.3625C2.53823 4.2375 3.22573 4.94375 4.08823 4.975Z" stroke="#3A3A3A" stroke-width="1.5" stroke-linecap="round" stroke-linejoin="round"/>
<path d="M4.73184 9.52501C3.87559 9.66876 2.93184 9.51876 2.26934 9.07501C1.38809 8.48751 1.38809 7.52501 2.26934 6.93751C2.93809 6.49376 3.89433 6.34376 4.75058 6.49376" stroke="#3A3A3A" stroke-width="1.5" stroke-linecap="round" stroke-linejoin="round"/>
<path d="M7.85674 9.64358C7.81924 9.63733 7.77549 9.63733 7.73799 9.64358C6.87549 9.61233 6.18799 8.90608 6.18799 8.03108C6.18799 7.13733 6.90674 6.41858 7.80049 6.41858C8.69424 6.41858 9.41299 7.14358 9.41299 8.03108C9.40674 8.90608 8.71924 9.61858 7.85674 9.64358Z" stroke="#3A3A3A" stroke-width="1.5" stroke-linecap="round" stroke-linejoin="round"/>
<path d="M6.03789 11.6124C5.15664 12.1999 5.15664 13.1624 6.03789 13.7499C7.03789 14.4186 8.67539 14.4186 9.67539 13.7499C10.5566 13.1624 10.5566 12.1999 9.67539 11.6124C8.68164 10.9499 7.03789 10.9499 6.03789 11.6124Z" stroke="#3A3A3A" stroke-width="1.5" stroke-linecap="round" stroke-linejoin="round"/>
</svg>
